/* XPM */
static char *_545967204219[] = {
/* columns rows colors chars-per-pixel */
"65 65 68 1 ",
"  c #2BB57A",
". c #2BB57B",
"X c #2CB57A",
"o c #2CB37F",
"O c #2CB47D",
"+ c #2CB47F",
"@ c #2CB381",
"# c #2CB382",
"$ c #2DB384",
"% c #2EB285",
"& c #2EB187",
"* c #2EB286",
"= c #2EB18C",
"- c #2FB08E",
"; c #30B189",
": c #30B18B",
"> c #30B08F",
", c #31AF92",
"< c #33AF93",
"1 c #35AE95",
"2 c #36AE96",
"3 c #38AE97",
"4 c #3AAE99",
"5 c #3AAD9A",
"6 c #3AAD9B",
"7 c #3BAD9C",
"8 c #3BAD9D",
"9 c #3BAC9F",
"0 c #30B090",
"q c #30B091",
"w c #3BAAA3",
"e c #3CABA2",
"r c #3BACA0",
"t c #3BAAA4",
"y c #3CA9A7",
"u c #3CAAA6",
"i c #3CA9A8",
"p c #3EA9AA",
"a c #3FA8AC",
"s c #3EA8AD",
"d c #3FA8AF",
"f c #3FA7B2",
"g c #3FA7B3",
"h c #40A7B1",
"j c #41A6B5",
"k c #41A5B7",
"l c #41A6B6",
"z c #44A5B9",
"x c #44A5BA",
"c c #44A4BB",
"v c #46A4BD",
"b c #47A4BF",
"n c #479FCB",
"m c #469FCD",
"M c #479ECE",
"N c #479ECF",
"B c #489ECF",
"V c #469DD1",
"C c #46A3C0",
"Z c #46A3C1",
"A c #47A2C2",
"S c #46A2C3",
"D c #46A1C4",
"F c #47A1C5",
"G c #46A1C7",
"H c #45A0C9",
"J c #46A0CA",
"K c None",
/* pixels */
"KKKKKKKKKKKKKKKKKKKKKKKKKKKKKKKKKKKKKKKKKKKKKKKKKKKKKKKKKKKKKKKKK",
"KKKKKKKKKKKKKKKKKKKKKKKKKKKKKKKKKKKKKKKKKKKKKKKKKKKKKKKKKKKKKKKKK",
"KKKKKKKKKKKKKKKKKKKKKKKKKKKKdppiuywweKKKKKKKKKKKKKKKKKKKKKKKKKKKK",
"KKKKKKKKKKKKKKKKKKKKKKKzghhhpdpipywwer8886KKKKKKKKKKKKKKKKKKKKKKK",
"KKKKKKKKKKKKKKKKKKKKKkllgghddppiytwwerr88443KKKKKKKKKKKKKKKKKKKKK",
"KKKKKKKKKKKKKKKKKKczcjllgghddppyyyywerr84646111KKKKKKKKKKKKKKKKKK",
"KKKKKKKKKKKKKKKKKvczclllgghddpppytwwer888663110,KKKKKKKKKKKKKKKKK",
"KKKKKKKKKKKKKKKCvvcccjlKKKhdpdpuuuwye8w84663311,0>KKKKKKKKKKKKKKK",
"KKKKKKKKKKKKKKCCbvzzzlKKKKKdappiptryerr88663311,>>>KKKKKKKKKKKKKK",
"KKKKKKKKKKKKFCCCbbczclKKKKKdadpiyywwer888663110,0,==;KKKKKKKKKKKK",
"KKKKKKKKKKKCFCFZCbcvzkKKKKKdsapiytyrer884633111,0>==>;KKKKKKKKKKK",
"KKKKKKKKKKFFFCZZvvczzlKKKKKfsapiyyywe8w84663310,0>>=;;*KKKKKKKKKK",
"KKKKKKKKKKFFCCCCCvczckKKKKKdsaiyytyrrrr88833310,0>==>;**KKKKKKKKK",
"KKKKKKKKKFFFFCFCCvczcjKKKKKdsadyityrwrr88463111,0>>=;;**KKKKKKKKK",
"KKKKKKKKHHFFFCZZvvcccjKKKKKdaapiiutterr88443111,,=-=;;**$KKKKKKKK",
"KKKKKKKHHFFCFCZZvccccjKKKKKdpdpiyttter88484631,,>,-=>;&*$#KKKKKKK",
"KKKKKKKJDHHZZZvvZvckkkKKKKKddppiytwwer884663311,0>==>;**$$oKKKKKK",
"KKKKKKJJDnZnvnvnvvvkckKKKKKdaapiyyywe8e8464311q,0>>=;;**$@$KKKKKK",
"KKKKKJBHnZZnZvZvZvccckKKKKKdaadyytwwere88833310,,=-=;;&*$@@oKKKKK",
"KKKKKBJHnZnZnvZZbvccckKKKKKdaapyuuwyer888466111,>,-=>;&*$@@oKKKKK",
"KKKKKVJJHHCnCFZZvbczcjKKKKKdpdpKKKKKKKK88863311,0>-=>;***@@+OKKKK",
"KKKKVJJJnHFZFCZvvccczjKKKKKdKKKKKKKKKKKKK463110,0>-=;;**#@@+OKKKK",
"KKKKVJBJHZnCHbZZvvccckKKKKKKKKKKKKKKKKKKKKK3111,0>==;;**$#o+OKKKK",
"KKKBBBJJnnCnCCZbCvcccjKKKKKKKKKKKKKKKKKKKKKK31000>>=>;**$#$oO.KKK",
"KKKBNJNJHGGACCCZCbzzclKKKKKKKKKKpyyrrrKKKKKKK1q1000=>;&*$#@o+.KKK",
"KKKBNNHHHGAGFFFZbbczcjKKKKKKKKppytwywrr8KKKKK11,00==;;&*$#@o..KKK",
"KKKBNHBJnFGACCCCvcczclKKKKKKKdpiyutrer888KKKKK1,0>==;;&*$##oO.KKK",
"KKKBBBJJnFAnFFCCvbbzckKKKKKKpdpiyttterr884KKKKq,0>0&>;&*$##+O..KK",
"KKVBBJJHHFFFHCCCCbczzlKKKKKddppiyywwerr884KKKKK,0>>=;;***@@oO..KK",
"KKVBVNBJHFFCCCFCbbbzclKKKKKdpdpyyywwer88464KKKK,0>==>;**#@@oO.XKK",
"KKVBBJNJHFFCFCCCbvzzzjKKKKKddppyytwwerw8466KKKK,,>>=;;**$#ooO.XKK",
"KKVBNJJHHHFHFCCCbvczzlKKKKKddpppuuywer88666KKKK,q>-=>&&*$#$oO.XKK",
"KKVBBHBJnFFFFCCCvbczckKKKKKdaapipyyrrrr8844KKKK,00>=>;**$$@oo..KK",
"KKVBBBJJHHFCFFCCvccccjKKKKKdaapiytwywr88844KKKK,00>=;;**$@@oo.XKK",
"KKVBNNJHHHFHZCCCvvcccjKKKKKdaapiyutrerr8846KKKK,,=>&;;&*$@@oO.XKK",
"KKVBVJBHHHFFCFFCCvcccjKKKKKfsapyyttterr846KKKKK,0qq=>;&*$@@oO..KK",
"KKKBNJNHHCFCFCCCCvvzcjKKKKKKdpppyywwer8886KKKK1,0>-=>;***@@oO..KK",
"KKKBNNHHHHFFCCCCvvbzcjKKKKKKKdpuyywwerw88KKKKKq,0>-=;;**#@@oO.KKK",
"KKKBNHNHnFFHHbZZbbczcjKKKKKKKKppytwwer88KKKKK3q,0>==;;**$#ooO.KKK",
"KKKBNNHHHHFCFCZvbbczcjKKKKKKKKKKuuywerKKKKKKK11,0>>=>;**$#$oO.KKK",
"KKKBNNJHHFFCCCZZbckzzkKKKKKKKKKKKKKKKKKKKKKK111,>>,=>;&*$#@o+.KKK",
"KKKKNJBJHHFHFFZbvbbzzlKKKKKKKKKKKKKKKKKKKKK3310,0,==;;&*$#@+.KKKK",
"KKKKBNHHHFFFCCCZvvbzckKKKKKdKKKKKKKKKKKKK663111,0>==;;**$##+OKKKK",
"KKKKNJBJHHFFFCFZvvczzkKKKKKddppKKKKKKKK8666331q,0>>&>;**$##+OKKKK",
"KKKKKNHHHHFFFCZbbbbzzkKKKKKdaapipyyrrrr8864331100>==>;**####KKKKK",
"KKKKKJBJHFFCFCZZbbkzzlKKKKKdsapiytwywrr8464311q10>-=;;**###OKKKKK",
"KKKKKKJHHHFCCFZbbbkcckKKKKKdsapiyutrerr8866331q0>>-=;;**$#oKKKKKK",
"KKKKKKBJHHFFFCZbbcbzzkKKKKKfsapiyttter88863311q10,-=>;&*$#$KKKKKK",
"KKKKKKKHHJGAAAAbbbkcclKKKKKhaapiytwwe8984663311,0>==>;***$KKKKKKK",
"KKKKKKKKHGAGCGCbbcbkcjKKKKKhaapiyyywee98464311q,0>-=;;**$KKKKKKKK",
"KKKKKKKKKGGACGCCbbbzcjKKKKKddppiytwwew988833310,>>-=;;**$KKKKKKKK",
"KKKKKKKKKGGAFCCCbbkzzlKKKKKdpdpiuuwye898846611100,-=>;**KKKKKKKKK",
"KKKKKKKKKKFFCGCCvvbzckKKKKKddppiptryee88844611q10>-=>;&KKKKKKKKKK",
"KKKKKKKKKKKFFCCCvbczckKKKKKdpdpyyywwe998486311100>-=;;KKKKKKKKKKK",
"KKKKKKKKKKKKFACCbcczzlKKKKKddppyytyre998843331q10>==;KKKKKKKKKKKK",
"KKKKKKKKKKKKKKCCbbcccjKKKKKddpppyyywee98844311100>-=KKKKKKKKKKKKK",
"KKKKKKKKKKKKKKKCbbkccjkKKKaddppiytyrrrr8486311q10>KKKKKKKKKKKKKKK",
"KKKKKKKKKKKKKKKKbbcccjjjgffdpdpiityrwr888663311q0KKKKKKKKKKKKKKKK",
"KKKKKKKKKKKKKKKKKKcccjjjgffdaapiiutterr8466311qKKKKKKKKKKKKKKKKKK",
"KKKKKKKKKKKKKKKKKKKKzjjjgfffaapyyttterr866631KKKKKKKKKKKKKKKKKKKK",
"KKKKKKKKKKKKKKKKKKKKKKKjgfhgdppyyywwer8886KKKKKKKKKKKKKKKKKKKKKKK",
"KKKKKKKKKKKKKKKKKKKKKKKKKKKdpdppyywyerKKKKKKKKKKKKKKKKKKKKKKKKKKK",
"KKKKKKKKKKKKKKKKKKKKKKKKKKKKKKKKKKKKKKKKKKKKKKKKKKKKKKKKKKKKKKKKK",
"KKKKKKKKKKKKKKKKKKKKKKKKKKKKKKKKKKKKKKKKKKKKKKKKKKKKKKKKKKKKKKKKK",
"KKKKKKKKKKKKKKKKKKKKKKKKKKKKKKKKKKKKKKKKKKKKKKKKKKKKKKKKKKKKKKKKK"
};
