/* XPM */
static char *_545967191268[] = {
/* columns rows colors chars-per-pixel */
"16 17 21 1 ",
"  c #2BB47C",
". c #2CB47C",
"X c #2DB284",
"o c #2FB18B",
"O c #30AF91",
"+ c #31AF91",
"@ c #38AE97",
"# c #3BAC9E",
"$ c #3BAAA4",
"% c #3DA9AA",
"& c #3EA7B1",
"* c #3FA7B1",
"= c #42A5B7",
"- c #42A6B7",
"; c #42A5B8",
": c #45A4BD",
"> c #479ECE",
", c #479ECF",
"< c #46A2C3",
"1 c #46A0C8",
"2 c None",
/* pixels */
"2222222222222222",
"22222=&%$#@22222",
"2222:=*%$#@+2222",
"222<:=2%$#@+o222",
"221<:=2%$#@+oX22",
"221<:=2222@+oX 2",
"2,1<:=22$22+oX 2",
"2,1<:=2%$#2+oX.2",
"2,1<:=2%$#2+oX 2",
"211<:;22$22+oX 2",
"2,1<:=2222@+oX 2",
"221<:=2%$#@+oX22",
"2221:=2%$#@+o222",
"2222:-&%$#@+2222",
"22222=&%$#@22222",
"2222222222222222",
"2222222222222222"
};
