/* XPM */
static char *_545967200033[] = {
/* columns rows colors chars-per-pixel */
"32 33 38 1 ",
"  c #2BB57A",
". c #2CB47E",
"X c #2CB381",
"o c #2CB382",
"O c #2EB285",
"+ c #2FB188",
"@ c #2FB18C",
"# c #2FB08F",
"$ c #30B188",
"% c #30AF91",
"& c #31AF91",
"* c #31AF92",
"= c #34AF95",
"- c #38AE97",
"; c #3AAD9A",
": c #3BAD9D",
"> c #3BAAA3",
", c #3BACA0",
"< c #3CAAA6",
"1 c #3DA9A9",
"2 c #3FA8AC",
"3 c #3FA9AC",
"4 c #3FA8AF",
"5 c #3FA7B2",
"6 c #40A6B4",
"7 c #42A5B7",
"8 c #44A5BA",
"9 c #46A4BD",
"0 c #469FCB",
"q c #479ECE",
"w c #479ED0",
"e c #46A3C0",
"r c #46A2C3",
"t c #46A1C5",
"y c #46A0C7",
"u c #46A1C7",
"i c #46A0CB",
"p c None",
/* pixels */
"pppppppppppppppppppppppppppppppp",
"pppppppppppp4431<>,:pppppppppppp",
"pppppppppp765431<>,:;-pppppppppp",
"pppppppp98765433<>,:;-=&pppppppp",
"pppppprr987pp431<>,:;;=&@@pppppp",
"ppppptr9987pp431<>,:;==&%@+ppppp",
"ppppttrr987pp431<>,:;-=&%+$Opppp",
"pppp0tr9987pp431<>,:;;=&%@$Opppp",
"ppp0ttre987pp431<>,:;==&%++Ooppp",
"ppp0ttre987pp431<,,:;;=&%@+Ooppp",
"ppqiitre987pp4pppppp;;=&%@+Oo.pp",
"ppqittre987pppppppppp-=&@@+Oo.pp",
"ppqittre987pppp1<>,ppp=*@@$Oo. p",
"pwqiitre987ppp31<>,:ppp&%@$Oo. p",
"pwqittte987pp431<>,:;pp%%+$Oo. p",
"pwqittre987pp431<>,:;pp%%@$Oo. p",
"pwqittre987pp431<>,:;pp&#@$Oo. p",
"pwqiitre987pp431<>,:;pp&#@$Oo. p",
"pwqittre987ppp31<>,:ppp&#@+Oo. p",
"pwqittt9987pppp1<>,ppp=&#@$Oo. p",
"ppqiirrr987pppppppppp;=&@@$Oo.pp",
"ppqittr9987pp4pppppp;==&%@$Oo.pp",
"pppiirt9987pp431<>,:;-=&#@$Oo.pp",
"pppittrr987pp431<>,:;;=&#@$Ooppp",
"ppppitrr986pp631<<,:;-=&#@$Opppp",
"ppppttr9987pp331<,,:;-=&#@$Opppp",
"ppppptrr987pp431<,,:;-=&#@+ppppp",
"ppppppr9997pp431<<,:;-=&#@pppppp",
"pppppppp98665431<>,:;==&pppppppp",
"ppppppppp9765331<,,:;;=ppppppppp",
"pppppppppppp54311>,:pppppppppppp",
"pppppppppppppppppppppppppppppppp",
"pppppppppppppppppppppppppppppppp"
};
